<svg xmlns="http://www.w3.org/2000/svg" version="1.1" xmlns:xlink="http://www.w3.org/1999/xlink" xmlns:svgjs="http://svgjs.dev/svgjs" width="128" height="128" viewBox="0 0 128 128"><g transform="matrix(0.5508021390374331,0,0,0.5508021390374331,28.657154604133957,12.760752631578946)"><svg viewBox="0 0 65 95" data-background-color="#ffffff" preserveAspectRatio="xMidYMid meet" height="187" width="128" xmlns="http://www.w3.org/2000/svg" xmlns:xlink="http://www.w3.org/1999/xlink"><g id="tight-bounds" transform="matrix(1,0,0,1,0.08436633698056539,-0.24049999999999727)"><svg viewBox="0 0 64.83126732603886 95.481" height="95.481" width="64.83126732603886"><g><svg viewBox="0 0 64.83126732603886 95.481" height="95.481" width="64.83126732603886"><g><svg viewBox="0 0 64.83126732603886 95.481" height="95.481" width="64.83126732603886"><g id="textblocktransform"><svg viewBox="0 0 64.83126732603886 95.481" height="95.481" width="64.83126732603886" id="textblock"><g><svg viewBox="0 0 64.83126732603886 95.481" height="95.481" width="64.83126732603886"><g><svg viewBox="0 0 64.83126732603886 95.481" height="95.481" width="64.83126732603886"><g><svg xmlns="http://www.w3.org/2000/svg" xmlns:xlink="http://www.w3.org/1999/xlink" version="1.1" x="0" y="0" viewBox="16.224 0 67.827 99.893" enable-background="new 0 0 100 100" xml:space="preserve" height="95.481" width="64.83126732603886" class="icon-icon-0" data-fill-palette-color="accent" id="icon-0"><g fill="#50a060" data-fill-palette-color="accent"><path d="M55.076 41.137C54.723 41.062 54.454 40.986 54.117 40.911V28.788C59.721 29.692 65.645 32.147 71.17 36.034L81.941 20.825C74.41 14.782 65.364 11.323 54.117 10.641V0H48.696V10.545C30.814 11.021 19.884 21.273 19.884 35.363V35.589C19.884 51.408 32.4 56.134 48.696 59.894V72.664C41.434 71.736 34.518 68.698 28.213 63.678L16.224 77.993C24.853 85.719 36.394 89.962 48.696 90.708V99.893H54.117V90.819C72.149 90.336 84.051 81.008 84.051 65.565V65.336C84.051 50.798 72.95 45.024 55.076 41.137M41.645 33.594V33.364C41.645 30.731 43.985 28.613 48.696 28.415V39.503C43.215 37.838 41.645 36.295 41.645 33.594M62.294 67.666C62.294 70.855 59.419 72.798 54.117 72.965V61.289C60.506 63.145 62.294 64.819 62.294 67.444z" fill="#50a060" data-fill-palette-color="accent"></path></g></svg></g></svg></g></svg></g></svg></g></svg></g><g></g></svg></g><defs></defs></svg><rect width="64.83126732603886" height="95.481" fill="none" stroke="none" visibility="hidden"></rect></g></svg></g></svg>