<svg xmlns="http://www.w3.org/2000/svg" version="1.1" xmlns:xlink="http://www.w3.org/1999/xlink" xmlns:svgjs="http://svgjs.dev/svgjs" width="2000" height="803" viewBox="0 0 2000 803"><g transform="matrix(1,0,0,1,-1.2121212121212466,-0.5094364174337898)"><svg viewBox="0 0 396 159" data-background-color="#ffffff" preserveAspectRatio="xMidYMid meet" height="803" width="2000" xmlns="http://www.w3.org/2000/svg" xmlns:xlink="http://www.w3.org/1999/xlink"><g id="tight-bounds" transform="matrix(1,0,0,1,0.2400000000000091,0.10087221715065198)"><svg viewBox="0 0 395.52 158.7982555656987" height="158.7982555656987" width="395.52"><g><svg viewBox="0 0 395.52 158.7982555656987" height="158.7982555656987" width="395.52"><g transform="matrix(1,0,0,1,0,116.72994347368751)"><svg viewBox="0 0 395.52 42.06831209201119" height="42.06831209201119" width="395.52"><g id="textblocktransform"><svg viewBox="0 0 395.52 42.06831209201119" height="42.06831209201119" width="395.52" id="textblock"><g><svg viewBox="0 0 395.52 42.06831209201119" height="42.06831209201119" width="395.52"><g transform="matrix(1,0,0,1,0,0)"><svg width="395.52" viewBox="1.46 -38.38 471.21000000000004 50.120000000000005" height="42.06831209201119" data-palette-color="#50a060"><path d="M9.18-2.27L9.18-2.27Q8.13-4.25 7.03-7.29 5.93-10.33 4.93-13.82 3.93-17.31 3.15-20.72 2.37-24.12 1.92-26.9 1.46-29.69 1.46-31.25L1.46-31.25Q1.46-31.88 1.73-32.25L1.73-32.25Q2.29-33.03 3.11-33.87 3.93-34.72 5.05-35.64L5.05-35.64Q5.42-35.94 5.74-35.94L5.74-35.94Q6.05-35.94 6.37-35.64L6.37-35.64Q7.52-34.72 8.33-33.87 9.13-33.03 9.69-32.25L9.69-32.25Q9.96-31.88 9.96-31.18L9.96-31.18 9.96-31.27Q9.96-29.66 10.39-26.92 10.82-24.17 11.51-20.91 12.21-17.65 13.02-14.49 13.84-11.33 14.65-8.86L14.65-8.86 14.79-8.86Q16.11-12.13 17.26-15.97 18.41-19.8 19.41-23.8 20.41-27.81 21.29-31.59L21.29-31.59Q21.56-32.69 22.2-33.12 22.85-33.54 24.24-33.54L24.24-33.54 27.17-33.54Q28.42-33.54 29.03-33.18 29.64-32.81 29.91-31.59L29.91-31.59Q30.54-28.76 31.35-25.61 32.15-22.46 33.02-19.35 33.89-16.24 34.78-13.53 35.67-10.82 36.47-8.86L36.47-8.86 36.62-8.86Q37.65-11.18 38.46-14.33 39.28-17.48 39.86-20.76 40.43-24.05 40.73-26.86 41.04-29.66 41.04-31.27L41.04-31.27 41.04-31.18Q41.04-31.88 41.28-32.25L41.28-32.25Q42.46-33.86 44.51-35.64L44.51-35.64Q44.9-35.94 45.19-35.94L45.19-35.94Q45.46-35.94 45.83-35.64L45.83-35.64Q46.92-34.72 47.71-33.87 48.49-33.03 49.05-32.25L49.05-32.25Q49.29-31.86 49.29-31.2L49.29-31.2Q49.29-29.15 48.83-26.27 48.36-23.39 47.57-20.13 46.78-16.87 45.79-13.62 44.8-10.38 43.71-7.56 42.63-4.74 41.58-2.78L41.58-2.78Q40.7-1.15 40-0.57 39.31 0 38.01 0L38.01 0 35.01 0Q33.91 0 33.17-0.49 32.42-0.98 31.62-2.32L31.62-2.32Q31.01-3.34 30.21-5.2 29.42-7.06 28.63-9.24 27.83-11.43 27.2-13.48 26.56-15.53 26.27-16.94L26.27-16.94Q25.93-18.55 25.7-20.06 25.46-21.56 25.42-22.41L25.42-22.41 25.22-22.41Q25.17-21.56 24.91-20.06 24.66-18.55 24.29-16.94L24.29-16.94Q23.93-15.33 23.32-13.26 22.71-11.18 21.97-9.08 21.24-6.98 20.51-5.2 19.78-3.42 19.14-2.37L19.14-2.37Q18.43-1.17 17.59-0.59 16.75 0 15.26 0L15.26 0 12.5 0Q11.21 0 10.55-0.46 9.89-0.93 9.18-2.27ZM49.29-31.27L49.29-31.27 49.29-31.18 49.29-31.2Q49.29-31.25 49.29-31.27ZM1.46-31.18L1.46-31.27 1.46-31.25 1.46-31.18ZM61.77-16.46L61.77-1.29Q61.77-0.56 61.46-0.28 61.15 0 60.42 0L60.42 0 55.39 0Q54.66 0 54.36-0.28 54.05-0.56 54.05-1.29L54.05-1.29 54.05-34.33Q54.05-34.91 54.29-35.23L54.29-35.23Q55.32-36.57 57.3-38.13L57.3-38.13Q57.64-38.38 57.91-38.38L57.91-38.38Q58.23-38.38 58.52-38.13L58.52-38.13Q59.57-37.33 60.29-36.62 61.01-35.91 61.52-35.23L61.52-35.23Q61.77-34.91 61.77-34.33L61.77-34.33 61.77-22.49 61.86-22.49Q62.4-23.19 63.25-23.91 64.11-24.63 65.54-25.12 66.97-25.61 69.19-25.61L69.19-25.61Q71.43-25.61 73.51-24.68 75.58-23.75 76.9-21.56 78.22-19.36 78.22-15.55L78.22-15.55 78.22-1.29Q78.22-0.56 77.91-0.28 77.61 0 76.88 0L76.88 0 71.85 0Q71.12 0 70.81-0.28 70.51-0.56 70.51-1.29L70.51-1.29 70.51-14.21Q70.51-16.92 69.38-18.15 68.26-19.38 66.33-19.38L66.33-19.38Q64.43-19.38 63.38-18.55 62.33-17.72 61.77-16.46L61.77-16.46ZM97.07 0.61L97.07 0.61Q92.94 0.61 89.89-0.72 86.84-2.05 85.15-4.86 83.47-7.67 83.47-12.11L83.47-12.11Q83.47-18.77 86.88-22.19 90.3-25.61 95.97-25.61L95.97-25.61Q99.65-25.61 102.2-24.29 104.76-22.97 106.09-20.65 107.42-18.33 107.42-15.36L107.42-15.36Q107.42-12.45 105.93-11.3 104.44-10.16 101.58-10.16L101.58-10.16 91.11-10.16Q91.3-7.64 92.95-6.32 94.6-5 97.43-5L97.43-5Q99.68-5 101.03-5.68 102.39-6.35 102.92-6.74L102.92-6.74Q103.39-7.08 103.97-7.06L103.97-7.06Q104.44-7.06 105.31-6.87 106.17-6.69 107.03-6.2L107.03-6.2Q107.64-5.88 107.64-5.32L107.64-5.32Q107.64-5 107.51-4.42L107.51-4.42Q107.44-4.08 107.27-3.43 107.1-2.78 106.83-2.22L106.83-2.22Q106.68-1.95 106.37-1.71L106.37-1.71Q105.88-1.37 104.79-0.81 103.71-0.24 101.83 0.18 99.95 0.61 97.07 0.61ZM91.06-15.16L91.06-15.16 99.02-15.16Q100.26-15.16 100.26-16.31L100.26-16.31Q100.26-18.04 99.18-19.23 98.09-20.41 95.92-20.41L95.92-20.41Q93.55-20.41 92.44-18.9 91.33-17.38 91.06-15.16ZM120.5-22.17L120.5-20.36 120.6-20.36Q122.43-25.44 127.19-25.44L127.19-25.44Q127.8-25.44 128.19-25.38 128.58-25.32 128.73-25.27L128.73-25.27Q129.09-25.15 129.09-24.71L129.09-24.71 129.09-18.82Q129.09-18.07 128.22-18.41L128.22-18.41Q127.92-18.53 127.37-18.66 126.82-18.8 125.85-18.8L125.85-18.8Q123.33-18.8 121.92-16.96 120.5-15.11 120.5-11.94L120.5-11.94 120.5-1.29Q120.5-0.56 120.2-0.28 119.89 0 119.16 0L119.16 0 114.13 0Q113.4 0 113.09-0.28 112.79-0.56 112.79-1.29L112.79-1.29 112.79-21.75Q112.79-22.34 113.03-22.66L113.03-22.66Q113.54-23.34 114.26-24.05 114.98-24.76 116.03-25.56L116.03-25.56Q116.23-25.71 116.42-25.76 116.62-25.81 116.76-25.81L116.76-25.81Q117.11-25.81 117.45-25.56L117.45-25.56Q119.47-23.97 120.28-22.85L120.28-22.85Q120.5-22.56 120.5-22.17L120.5-22.17ZM144.99 0.61L144.99 0.61Q140.86 0.61 137.81-0.72 134.76-2.05 133.07-4.86 131.39-7.67 131.39-12.11L131.39-12.11Q131.39-18.77 134.8-22.19 138.22-25.61 143.89-25.61L143.89-25.61Q147.57-25.61 150.12-24.29 152.68-22.97 154.01-20.65 155.34-18.33 155.34-15.36L155.34-15.36Q155.34-12.45 153.85-11.3 152.36-10.16 149.5-10.16L149.5-10.16 139.03-10.16Q139.22-7.64 140.87-6.32 142.52-5 145.35-5L145.35-5Q147.6-5 148.95-5.68 150.31-6.35 150.84-6.74L150.84-6.74Q151.31-7.08 151.89-7.06L151.89-7.06Q152.36-7.06 153.22-6.87 154.09-6.69 154.95-6.2L154.95-6.2Q155.56-5.88 155.56-5.32L155.56-5.32Q155.56-5 155.43-4.42L155.43-4.42Q155.36-4.08 155.19-3.43 155.02-2.78 154.75-2.22L154.75-2.22Q154.6-1.95 154.29-1.71L154.29-1.71Q153.8-1.37 152.71-0.81 151.63-0.24 149.75 0.18 147.87 0.61 144.99 0.61ZM138.98-15.16L138.98-15.16 146.94-15.16Q148.18-15.16 148.18-16.31L148.18-16.31Q148.18-18.04 147.1-19.23 146.01-20.41 143.84-20.41L143.84-20.41Q141.47-20.41 140.36-18.9 139.25-17.38 138.98-15.16ZM173.37-33.2L173.37-33.2Q173.37-33.52 173.57-33.76 173.76-34.01 174.08-34.4L174.08-34.4Q174.77-35.18 175.67-36.05 176.57-36.91 177.5-37.72L177.5-37.72Q178.09-38.18 178.38-38.18L178.38-38.18Q178.67-38.18 179.28-37.72L179.28-37.72Q181.26-36.01 182.65-34.4L182.65-34.4Q182.97-34.03 183.18-33.78 183.38-33.52 183.38-33.2L183.38-33.2Q183.38-32.89 183.18-32.64 182.97-32.4 182.63-31.98L182.63-31.98Q181.97-31.23 181.09-30.36 180.21-29.49 179.28-28.71L179.28-28.71Q178.94-28.42 178.74-28.33 178.55-28.25 178.38-28.25L178.38-28.25Q178.21-28.25 178.02-28.33 177.84-28.42 177.45-28.71L177.45-28.71Q176.47-29.49 175.62-30.36 174.77-31.23 174.08-32.03L174.08-32.03Q173.76-32.42 173.57-32.65 173.37-32.89 173.37-33.2ZM182.21-23.71L182.21-1.29Q182.21-0.56 181.91-0.28 181.6 0 180.87 0L180.87 0 175.84 0Q175.11 0 174.8-0.28 174.5-0.56 174.5-1.29L174.5-1.29 174.5-23.71Q174.5-24.44 174.8-24.72 175.11-25 175.84-25L175.84-25 180.87-25Q181.6-25 181.91-24.72 182.21-24.44 182.21-23.71L182.21-23.71ZM195.81 0.61L195.81 0.61Q193.2 0.61 191.47 0.17 189.75-0.27 188.72-0.89 187.68-1.51 187.09-2.03L187.09-2.03Q186.65-2.44 186.99-2.95L186.99-2.95 189.48-6.64Q190.02-7.42 190.71-6.74L190.71-6.74Q191.41-6.05 192.62-5.41 193.83-4.76 195.64-4.76L195.64-4.76Q197.25-4.76 198.29-5.31 199.32-5.86 199.32-6.91L199.32-6.91Q199.32-7.64 198.86-8.11 198.4-8.57 197.22-9.06 196.05-9.55 193.95-10.3L193.95-10.3Q190.85-11.43 189.26-13.01 187.68-14.6 187.68-17.65L187.68-17.65Q187.68-20.46 189.23-22.22 190.78-23.97 193.21-24.79 195.64-25.61 198.27-25.61L198.27-25.61Q201.62-25.61 202.97-24.99 204.33-24.37 204.72-24.02L204.72-24.02Q205.09-23.71 205.23-23.29L205.23-23.29Q205.55-22.34 205.72-20.78L205.72-20.78Q205.82-19.87 205.26-19.58L205.26-19.58Q204.96-19.41 204.33-19.21 203.69-19.02 203.06-18.87 202.42-18.73 202.11-18.73L202.11-18.73Q202.01-18.73 201.9-18.79 201.79-18.85 201.52-19.09L201.52-19.09Q201.2-19.41 200.43-19.82 199.67-20.24 198.32-20.24L198.32-20.24Q197-20.24 196.11-19.81 195.22-19.38 195.22-18.31L195.22-18.31Q195.22-17.14 196.36-16.55 197.49-15.97 200.1-15.04L200.1-15.04Q202.16-14.33 203.68-13.49 205.21-12.65 206.04-11.29 206.87-9.94 206.87-7.64L206.87-7.64Q206.87-4.66 205.24-2.84 203.62-1.03 201.09-0.21 198.57 0.61 195.81 0.61ZM247.78-22.44L247.78-22.44Q248.68-23.54 250.58-24.57 252.47-25.61 255.91-25.61L255.91-25.61Q260.79-25.61 262.97-23.1 265.14-20.58 265.14-15.55L265.14-15.55 265.14-1.29Q265.14-0.56 264.83-0.28 264.53 0 263.8 0L263.8 0 258.77 0Q258.03 0 257.73-0.28 257.42-0.56 257.42-1.29L257.42-1.29 257.42-14.28Q257.42-17.02 256.42-18.2 255.42-19.38 253.42-19.38L253.42-19.38Q251.64-19.38 250.6-18.59 249.56-17.8 249.12-16.46L249.12-16.46 249.12-1.29Q249.12-0.56 248.82-0.28 248.51 0 247.78 0L247.78 0 242.75 0Q242.02 0 241.71-0.28 241.41-0.56 241.41-1.29L241.41-1.29 241.41-14.28Q241.41-16.94 240.31-18.16 239.21-19.38 237.43-19.38L237.43-19.38Q235.74-19.38 234.72-18.55 233.69-17.72 233.13-16.46L233.13-16.46 233.13-1.29Q233.13-0.56 232.83-0.28 232.52 0 231.79 0L231.79 0 226.76 0Q226.03 0 225.72-0.28 225.42-0.56 225.42-1.29L225.42-1.29 225.42-21.75Q225.42-22.34 225.66-22.66L225.66-22.66Q226.17-23.34 226.89-24.05 227.61-24.76 228.66-25.56L228.66-25.56Q228.98-25.81 229.27-25.81L229.27-25.81Q229.54-25.81 229.88-25.56L229.88-25.56Q230.91-24.76 231.64-24.02 232.37-23.29 232.94-22.51L232.94-22.51 233.06-22.51Q233.89-23.56 235.65-24.58 237.4-25.61 240.68-25.61L240.68-25.61Q243.8-25.61 245.31-24.67 246.83-23.73 247.78-22.44ZM272.51 11.74L272.51 11.74Q271.61 11.74 271.14 11.56 270.68 11.38 270.36 11.11L270.36 11.11Q269.73 10.5 268.99 9.4L268.99 9.4Q268.82 9.13 268.63 8.78 268.43 8.42 268.43 8.18L268.43 8.18Q268.43 7.91 268.55 7.69 268.68 7.47 268.85 7.28L268.85 7.28Q269.24 6.76 269.8 6.21 270.36 5.66 270.75 5.35L270.75 5.35Q271.02 5.13 271.19 5.07 271.36 5 271.48 5L271.48 5Q271.61 5 271.85 5.05 272.09 5.1 272.58 5.1L272.58 5.1Q274.27 5.1 276.1 4 277.93 2.91 279.71-0.12L279.71-0.12Q277.86-1.83 276.06-4.41 274.27-6.98 272.83-10 271.39-13.01 270.52-16.02 269.65-19.02 269.65-21.56L269.65-21.56Q269.65-22.09 269.92-22.41L269.92-22.41Q271.04-23.8 273.12-25.32L273.12-25.32Q273.49-25.56 273.78-25.56L273.78-25.56Q274.1-25.56 274.44-25.32L274.44-25.32Q275.56-24.51 276.33-23.8 277.1-23.1 277.64-22.41L277.64-22.41Q277.9-22.09 277.9-21.51L277.9-21.51 277.9-21.61Q277.9-19.68 278.37-17.53 278.83-15.38 279.64-13.34 280.44-11.3 281.44-9.66 282.45-8.01 283.52-7.03L283.52-7.03 283.64-7.03Q284.13-7.96 284.73-9.7 285.33-11.45 285.86-13.59 286.4-15.72 286.74-17.83 287.08-19.95 287.08-21.58L287.08-21.58 287.08-21.51Q287.08-22.09 287.33-22.41L287.33-22.41Q287.89-23.1 288.65-23.8 289.4-24.51 290.48-25.32L290.48-25.32Q290.82-25.56 291.11-25.56L291.11-25.56Q291.45-25.56 291.75-25.32L291.75-25.32Q292.85-24.51 293.6-23.8 294.36-23.1 294.9-22.41L294.9-22.41Q295.14-22.09 295.14-21.53L295.14-21.53Q295.12-19.31 294.29-15.73 293.46-12.16 291.87-7.98 290.28-3.81 288.01 0.2L288.01 0.2Q284.62 6.23 280.69 8.98 276.76 11.74 272.51 11.74ZM295.14-21.58L295.14-21.58 295.14-21.51 295.14-21.53Q295.14-21.56 295.14-21.58ZM269.65-21.51L269.65-21.58 269.65-21.56 269.65-21.51ZM335.76-22.44L335.76-22.44Q336.66-23.54 338.56-24.57 340.45-25.61 343.89-25.61L343.89-25.61Q348.77-25.61 350.95-23.1 353.12-20.58 353.12-15.55L353.12-15.55 353.12-1.29Q353.12-0.56 352.81-0.28 352.51 0 351.78 0L351.78 0 346.75 0Q346.01 0 345.71-0.28 345.4-0.56 345.4-1.29L345.4-1.29 345.4-14.28Q345.4-17.02 344.4-18.2 343.4-19.38 341.4-19.38L341.4-19.38Q339.62-19.38 338.58-18.59 337.54-17.8 337.1-16.46L337.1-16.46 337.1-1.29Q337.1-0.56 336.8-0.28 336.49 0 335.76 0L335.76 0 330.73 0Q330 0 329.69-0.28 329.39-0.56 329.39-1.29L329.39-1.29 329.39-14.28Q329.39-16.94 328.29-18.16 327.19-19.38 325.41-19.38L325.41-19.38Q323.72-19.38 322.7-18.55 321.67-17.72 321.11-16.46L321.11-16.46 321.11-1.29Q321.11-0.56 320.81-0.28 320.5 0 319.77 0L319.77 0 314.74 0Q314.01 0 313.7-0.28 313.4-0.56 313.4-1.29L313.4-1.29 313.4-21.75Q313.4-22.34 313.64-22.66L313.64-22.66Q314.15-23.34 314.87-24.05 315.6-24.76 316.64-25.56L316.64-25.56Q316.96-25.81 317.26-25.81L317.26-25.81Q317.52-25.81 317.87-25.56L317.87-25.56Q318.89-24.76 319.62-24.02 320.36-23.29 320.92-22.51L320.92-22.51 321.04-22.51Q321.87-23.56 323.63-24.58 325.39-25.61 328.66-25.61L328.66-25.61Q331.78-25.61 333.3-24.67 334.81-23.73 335.76-22.44ZM371.7 0.61L371.7 0.61Q365.54 0.61 361.95-2.66 358.37-5.93 358.37-12.4L358.37-12.4Q358.37-19.04 362.09-22.33 365.81-25.61 372.04-25.61L372.04-25.61Q378.04-25.61 381.66-22.38 385.27-19.14 385.27-12.84L385.27-12.84Q385.27-6.27 381.66-2.83 378.04 0.61 371.7 0.61ZM371.94-5.3L371.94-5.3Q374.63-5.3 375.99-6.97 377.36-8.64 377.36-12.7L377.36-12.7Q377.36-16.55 375.98-18.13 374.6-19.7 371.89-19.7L371.89-19.7Q369.28-19.7 367.78-18.01 366.28-16.31 366.28-12.5L366.28-12.5Q366.28-8.52 367.7-6.91 369.13-5.3 371.94-5.3ZM414.69-15.55L414.69-15.55 414.69-1.29Q414.69-0.56 414.38-0.28 414.08 0 413.34 0L413.34 0 408.31 0Q407.58 0 407.28-0.28 406.97-0.56 406.97-1.29L406.97-1.29 406.97-14.28Q406.97-16.94 405.85-18.16 404.73-19.38 402.8-19.38L402.8-19.38Q400.87-19.38 399.83-18.55 398.79-17.72 398.23-16.46L398.23-16.46 398.23-1.29Q398.23-0.56 397.93-0.28 397.62 0 396.89 0L396.89 0 391.86 0Q391.13 0 390.82-0.28 390.52-0.56 390.52-1.29L390.52-1.29 390.52-21.75Q390.52-22.34 390.76-22.66L390.76-22.66Q391.27-23.34 391.99-24.05 392.71-24.76 393.76-25.56L393.76-25.56Q394.08-25.81 394.37-25.81L394.37-25.81Q394.64-25.81 394.98-25.56L394.98-25.56Q396.01-24.76 396.74-24.02 397.47-23.29 398.04-22.51L398.04-22.51 398.16-22.51Q398.57-23.05 399.4-23.77 400.23-24.49 401.74-25.05 403.24-25.61 405.58-25.61L405.58-25.61Q407.88-25.61 409.95-24.68 412.03-23.75 413.36-21.56 414.69-19.36 414.69-15.55ZM433.53 0.61L433.53 0.61Q429.41 0.61 426.35-0.72 423.3-2.05 421.62-4.86 419.93-7.67 419.93-12.11L419.93-12.11Q419.93-18.77 423.35-22.19 426.77-25.61 432.43-25.61L432.43-25.61Q436.12-25.61 438.67-24.29 441.22-22.97 442.55-20.65 443.88-18.33 443.88-15.36L443.88-15.36Q443.88-12.45 442.39-11.3 440.9-10.16 438.05-10.16L438.05-10.16 427.57-10.16Q427.77-7.64 429.42-6.32 431.07-5 433.9-5L433.9-5Q436.14-5 437.5-5.68 438.85-6.35 439.39-6.74L439.39-6.74Q439.86-7.08 440.44-7.06L440.44-7.06Q440.9-7.06 441.77-6.87 442.64-6.69 443.49-6.2L443.49-6.2Q444.1-5.88 444.1-5.32L444.1-5.32Q444.1-5 443.98-4.42L443.98-4.42Q443.91-4.08 443.74-3.43 443.57-2.78 443.3-2.22L443.3-2.22Q443.15-1.95 442.83-1.71L442.83-1.71Q442.35-1.37 441.26-0.81 440.17-0.24 438.29 0.18 436.41 0.61 433.53 0.61ZM427.53-15.16L427.53-15.16 435.48-15.16Q436.73-15.16 436.73-16.31L436.73-16.31Q436.73-18.04 435.64-19.23 434.56-20.41 432.38-20.41L432.38-20.41Q430.02-20.41 428.91-18.9 427.79-17.38 427.53-15.16ZM450.03 11.74L450.03 11.74Q449.13 11.74 448.67 11.56 448.2 11.38 447.88 11.11L447.88 11.11Q447.25 10.5 446.52 9.4L446.52 9.4Q446.35 9.13 446.15 8.78 445.96 8.42 445.96 8.18L445.96 8.18Q445.96 7.91 446.08 7.69 446.2 7.47 446.37 7.28L446.37 7.28Q446.76 6.76 447.32 6.21 447.88 5.66 448.28 5.35L448.28 5.35Q448.54 5.13 448.71 5.07 448.89 5 449.01 5L449.01 5Q449.13 5 449.37 5.05 449.62 5.1 450.11 5.1L450.11 5.1Q451.79 5.1 453.62 4 455.45 2.91 457.24-0.12L457.24-0.12Q455.38-1.83 453.59-4.41 451.79-6.98 450.35-10 448.91-13.01 448.04-16.02 447.18-19.02 447.18-21.56L447.18-21.56Q447.18-22.09 447.45-22.41L447.45-22.41Q448.57-23.8 450.64-25.32L450.64-25.32Q451.01-25.56 451.3-25.56L451.3-25.56Q451.62-25.56 451.96-25.32L451.96-25.32Q453.09-24.51 453.85-23.8 454.62-23.1 455.16-22.41L455.16-22.41Q455.43-22.09 455.43-21.51L455.43-21.51 455.43-21.61Q455.43-19.68 455.89-17.53 456.36-15.38 457.16-13.34 457.97-11.3 458.97-9.66 459.97-8.01 461.04-7.03L461.04-7.03 461.17-7.03Q461.65-7.96 462.25-9.7 462.85-11.45 463.39-13.59 463.92-15.72 464.27-17.83 464.61-19.95 464.61-21.58L464.61-21.58 464.61-21.51Q464.61-22.09 464.85-22.41L464.85-22.41Q465.41-23.1 466.17-23.8 466.93-24.51 468-25.32L468-25.32Q468.34-25.56 468.64-25.56L468.64-25.56Q468.98-25.56 469.27-25.32L469.27-25.32Q470.37-24.51 471.13-23.8 471.88-23.1 472.42-22.41L472.42-22.41Q472.67-22.09 472.67-21.53L472.67-21.53Q472.64-19.31 471.81-15.73 470.98-12.16 469.39-7.98 467.81-3.81 465.54 0.2L465.54 0.2Q462.14 6.23 458.21 8.98 454.28 11.74 450.03 11.74ZM472.67-21.58L472.67-21.58 472.67-21.51 472.67-21.53Q472.67-21.56 472.67-21.58ZM447.18-21.51L447.18-21.58 447.18-21.56 447.18-21.51Z" opacity="1" transform="matrix(1,0,0,1,0,0)" fill="#50a060" class="wordmark-text-0" data-fill-palette-color="primary" id="text-0"></path></svg></g></svg></g></svg></g></svg></g><g transform="matrix(1,0,0,1,149.32634710858986,0)"><svg viewBox="0 0 96.86730578282024 96.86730578282024" height="96.86730578282024" width="96.86730578282024"><g><svg></svg></g><g id="icon-0"><svg viewBox="0 0 96.86730578282024 96.86730578282024" height="96.86730578282024" width="96.86730578282024"><g><path d="M0 48.434c0-26.749 21.684-48.434 48.434-48.434 26.749 0 48.434 21.684 48.433 48.434 0 26.749-21.684 48.434-48.433 48.433-26.749 0-48.434-21.684-48.434-48.433zM48.434 93.074c24.654 0 44.64-19.986 44.64-44.64 0-24.654-19.986-44.64-44.64-44.64-24.654 0-44.64 19.986-44.64 44.64 0 24.654 19.986 44.64 44.64 44.64z" data-fill-palette-color="accent" fill="#50a060" stroke="transparent"></path></g><g transform="matrix(1,0,0,1,32.86886975301992,25.510438212252673)"><svg viewBox="0 0 31.129566276780395 45.84642935831489" height="45.84642935831489" width="31.129566276780395"><g><svg xmlns="http://www.w3.org/2000/svg" xmlns:xlink="http://www.w3.org/1999/xlink" version="1.1" x="0" y="0" viewBox="16.224 0 67.827 99.893" enable-background="new 0 0 100 100" xml:space="preserve" height="45.84642935831489" width="31.129566276780395" class="icon-dxe-0" data-fill-palette-color="accent" id="dxe-0"><g fill="#50a060" data-fill-palette-color="accent"><path d="M55.076 41.137C54.723 41.062 54.454 40.986 54.117 40.911V28.788C59.721 29.692 65.645 32.147 71.17 36.034L81.941 20.825C74.41 14.782 65.364 11.323 54.117 10.641V0H48.696V10.545C30.814 11.021 19.884 21.273 19.884 35.363V35.589C19.884 51.408 32.4 56.134 48.696 59.894V72.664C41.434 71.736 34.518 68.698 28.213 63.678L16.224 77.993C24.853 85.719 36.394 89.962 48.696 90.708V99.893H54.117V90.819C72.149 90.336 84.051 81.008 84.051 65.565V65.336C84.051 50.798 72.95 45.024 55.076 41.137M41.645 33.594V33.364C41.645 30.731 43.985 28.613 48.696 28.415V39.503C43.215 37.838 41.645 36.295 41.645 33.594M62.294 67.666C62.294 70.855 59.419 72.798 54.117 72.965V61.289C60.506 63.145 62.294 64.819 62.294 67.444z" fill="#50a060" data-fill-palette-color="accent"></path></g></svg></g></svg></g></svg></g></svg></g><g></g></svg></g><defs></defs></svg><rect width="395.52" height="158.7982555656987" fill="none" stroke="none" visibility="hidden"></rect></g></svg></g></svg>